<?xml version="1.0" encoding="UTF-8" standalone="no"?>
<!DOCTYPE svg PUBLIC "-//W3C//DTD SVG 1.1//EN" "http://www.w3.org/Graphics/SVG/1.1/DTD/svg11.dtd">
<svg width="100%" height="100%" viewBox="0 0 306 176" version="1.1" xmlns="http://www.w3.org/2000/svg" xmlns:xlink="http://www.w3.org/1999/xlink" xml:space="preserve" xmlns:serif="http://www.serif.com/" style="fill-rule:evenodd;clip-rule:evenodd;stroke-miterlimit:2;">
    <g transform="matrix(1,0,0,1,-10.829,-453.934)">
        <g transform="matrix(0.614115,0,0,0.614115,-20.2693,217.934)">
            <g transform="matrix(4.16667,0,0,4.16667,-1244.49,-888.26)">
                <path d="M375.228,369.259C375.228,371.149 373.695,372.683 371.804,372.683C369.914,372.683 368.38,371.149 368.38,369.259C368.38,367.368 369.914,365.835 371.804,365.835C373.695,365.835 375.228,367.368 375.228,369.259Z" style="fill:rgb(6,139,255);fill-rule:nonzero;"/>
            </g>
            <g transform="matrix(4.16667,0,0,4.16667,-1244.49,-888.26)">
                <path d="M428.277,342.523C428.277,342.523 418.673,386.346 379.133,367.796C379.133,367.796 387.355,326.059 428.277,342.523Z" style="fill:rgb(6,139,255);fill-rule:nonzero;"/>
            </g>
            <g transform="matrix(4.16667,0,0,4.16667,-1244.49,-888.26)">
                <path d="M428.277,342.523C428.277,342.523 418.673,386.346 379.133,367.796C379.133,367.796 387.355,326.059 428.277,342.523Z" style="fill:none;stroke:white;stroke-width:1.63px;"/>
            </g>
            <g transform="matrix(4.16667,0,0,4.16667,-1244.49,-888.26)">
                <path d="M410.106,320.907C410.106,320.907 419.922,364.683 376.247,364.581C376.247,364.581 366.06,323.279 410.106,320.907Z" style="fill:rgb(0,111,238);fill-rule:nonzero;"/>
            </g>
            <g transform="matrix(4.16667,0,0,4.16667,-1244.49,-888.26)">
                <path d="M410.106,320.907C410.106,320.907 419.922,364.683 376.247,364.581C376.247,364.581 366.06,323.279 410.106,320.907Z" style="fill:none;stroke:white;stroke-width:1.63px;"/>
            </g>
            <g transform="matrix(4.16667,0,0,4.16667,-1244.49,-888.26)">
                <path d="M384.605,308.894C384.605,308.894 412.002,344.418 372.376,362.784C372.376,362.784 345.688,329.657 384.605,308.894Z" style="fill:rgb(6,139,255);fill-rule:nonzero;"/>
            </g>
            <g transform="matrix(4.16667,0,0,4.16667,-1244.49,-888.26)">
                <path d="M384.605,308.894C384.605,308.894 412.002,344.418 372.376,362.784C372.376,362.784 345.688,329.657 384.605,308.894Z" style="fill:none;stroke:white;stroke-width:1.63px;"/>
            </g>
            <g transform="matrix(4.16667,0,0,4.16667,-1244.49,-888.26)">
                <path d="M356.366,308.918C356.366,308.918 396.21,329.536 368.058,362.929C368.058,362.929 329.871,344.185 356.366,308.918Z" style="fill:rgb(0,111,238);fill-rule:nonzero;"/>
            </g>
            <g transform="matrix(4.16667,0,0,4.16667,-1244.49,-888.26)">
                <path d="M356.366,308.918C356.366,308.918 396.21,329.536 368.058,362.929C368.058,362.929 329.871,344.185 356.366,308.918Z" style="fill:none;stroke:white;stroke-width:1.63px;"/>
            </g>
            <g transform="matrix(4.16667,0,0,4.16667,-1244.49,-888.26)">
                <path d="M330.784,320.875C330.784,320.875 375.607,322.723 364.206,364.884C364.206,364.884 321.674,364.034 330.784,320.875Z" style="fill:rgb(6,139,255);fill-rule:nonzero;"/>
            </g>
            <g transform="matrix(4.16667,0,0,4.16667,-1244.49,-888.26)">
                <path d="M330.784,320.875C330.784,320.875 375.607,322.723 364.206,364.884C364.206,364.884 321.674,364.034 330.784,320.875Z" style="fill:none;stroke:white;stroke-width:1.63px;"/>
            </g>
            <g transform="matrix(4.16667,0,0,4.16667,-1244.49,-888.26)">
                <path d="M312.651,342.523C312.651,342.523 354.056,325.255 361.541,368.284C361.541,368.284 322.635,385.488 312.651,342.523Z" style="fill:rgb(0,111,238);fill-rule:nonzero;"/>
            </g>
            <g transform="matrix(4.16667,0,0,4.16667,-1244.49,-888.26)">
                <path d="M312.651,342.523C312.651,342.523 354.056,325.255 361.541,368.284C361.541,368.284 322.635,385.488 312.651,342.523Z" style="fill:none;stroke:white;stroke-width:1.63px;"/>
            </g>
            <g transform="matrix(4.16667,0,0,4.16667,-1244.49,-888.26)">
                <path d="M325.63,331.88C325.63,333.17 324.586,334.215 323.296,334.215C322.005,334.215 320.961,333.17 320.961,331.88C320.961,330.591 322.005,329.545 323.296,329.545C324.586,329.545 325.63,330.591 325.63,331.88Z" style="fill:rgb(6,139,255);fill-rule:nonzero;"/>
            </g>
            <g transform="matrix(4.16667,0,0,4.16667,-1244.49,-888.26)">
                <path d="M343.705,313.806C343.705,315.096 342.66,316.141 341.37,316.141C340.081,316.141 339.035,315.096 339.035,313.806C339.035,312.517 340.081,311.471 341.37,311.471C342.66,311.471 343.705,312.517 343.705,313.806Z" style="fill:rgb(6,139,255);fill-rule:nonzero;"/>
            </g>
            <g transform="matrix(4.16667,0,0,4.16667,-1244.49,-888.26)">
                <path d="M399.485,317.006C399.485,318.295 398.439,319.341 397.149,319.341C395.86,319.341 394.814,318.295 394.814,317.006C394.814,315.716 395.86,314.671 397.149,314.671C398.439,314.671 399.485,315.716 399.485,317.006Z" style="fill:rgb(6,139,255);fill-rule:nonzero;"/>
            </g>
            <g transform="matrix(4.16667,0,0,4.16667,-1244.49,-888.26)">
                <path d="M371.804,307.748C371.804,309.038 370.759,310.083 369.469,310.083C368.18,310.083 367.134,309.038 367.134,307.748C367.134,306.459 368.18,305.413 369.469,305.413C370.759,305.413 371.804,306.459 371.804,307.748Z" style="fill:rgb(6,139,255);fill-rule:nonzero;"/>
            </g>
            <g transform="matrix(4.16667,0,0,4.16667,-1244.49,-888.26)">
                <path d="M419.289,333.504C419.289,334.794 418.243,335.839 416.954,335.839C415.664,335.839 414.619,334.794 414.619,333.504C414.619,332.214 415.664,331.169 416.954,331.169C418.243,331.169 419.289,332.214 419.289,333.504Z" style="fill:rgb(6,139,255);fill-rule:nonzero;"/>
            </g>
        </g>
    </g>
</svg>
